<svg class="diagram-root" style="background: #f5f6f6" xmlns="http://www.w3.org/2000/svg" xmlns:xlink="http://www.w3.org/1999/xlink"><style>.diagram-root { font-family: "Helvetica Neue", sans-serif; font-size: 12px; } .t { overflow: visible; } .t-bg { y: 40; fill: #fff;   } .th { fill: #005aa0;   } .tht { fill: #fff; font-size: 14px;  } .tf { fill: #323c46; overflow: visible; } .tf.pk { fill: #005aa0; font-weight: bold; } .tf.fk { font-weight: bold; } .ty { fill: #adb1b5; font-weight: normal; text-anchor: end; } .r { fill: transparent; stroke: #c3c3c3; stroke-width: 1; } .l { stroke: 1; } .i { fill: #c2c7ce; stroke: #c2c7ce; } .i.ix { fill: #afb3b6; stroke: #000; } .fa { fill: transparent; overflow: visible; } .fa .bg.hover { fill: #f7f7f7; } .c { cy: 12; r: 4; stroke: #d2d2dc; fill: #d2d2dc; } .hr { fill: transparent; stroke: #323c46; stroke-opacity: 0.035; stroke-width: 13; } .dc { stroke: #fa5a3c; fill: #fa5a3c; } .x { stroke: white; stroke-width: 1; } .hl .th { fill: #1b9bff; } .hl .tht {  } .fhl .bg { fill: #e7f4ff; } .fhls .bg {  } .r.hl { stroke: #1b9bff; } .dim { opacity: 0.25; }</style><g class="drawing-wrapper" transform="translate(-90, 7) scale(1,1)"><g class="rs"><path d="M 279 463 m -1, 0 a 1,1 0 1,0 2,0 a 1,1 0 1,0 -2,0 M 279 463 m -0.5, 0 a 0.5,0.5 0 1,0 1,0 a 0.5,0.5 0 1,0 -1,0  M279 463 L279 463 291 463 M285 469 L285 469 285 457 M291 463 Q 351.75 463, 412.5 271.5 T 534 80 M 546 80 m -1, 0 a 1,1 0 1,0 2,0 a 1,1 0 1,0 -2,0 M 546 80 m -0.5, 0 a 0.5,0.5 0 1,0 1,0 a 0.5,0.5 0 1,0 -1,0  M546 80 L546 80 534 80 M540 86 L540 86 540 74" id="h1139284389" class="r"></path><path d="M 112 488 m -1, 0 a 1,1 0 1,0 2,0 a 1,1 0 1,0 -2,0 M 112 488 m -0.5, 0 a 0.5,0.5 0 1,0 1,0 a 0.5,0.5 0 1,0 -1,0  M112 488 L112 488 100 488 M106 494 L106 494 106 482 M100 488 C 50 488, -52.60000000000002 84, 271 84 M 283 84 m -1, 0 a 1,1 0 1,0 2,0 a 1,1 0 1,0 -2,0 M 283 84 m -0.5, 0 a 0.5,0.5 0 1,0 1,0 a 0.5,0.5 0 1,0 -1,0  M283 84 L283 84 271 84 M277 90 L277 90 277 78" id="h1607168654" class="r"></path><path d="M 551 470 m -1, 0 a 1,1 0 1,0 2,0 a 1,1 0 1,0 -2,0 M 551 470 m -0.5, 0 a 0.5,0.5 0 1,0 1,0 a 0.5,0.5 0 1,0 -1,0  M551 470 L551 470 563 470 M557 476 L557 476 557 464 M563 470 C 613 470, 673.6 84, 462 84 M 450 84 m -1, 0 a 1,1 0 1,0 2,0 a 1,1 0 1,0 -2,0 M 450 84 m -0.5, 0 a 0.5,0.5 0 1,0 1,0 a 0.5,0.5 0 1,0 -1,0  M450 84 L450 84 462 84 M456 90 L456 90 456 78" id="h1397587031" class="r"></path><path d="M 404 495 m -1, 0 a 1,1 0 1,0 2,0 a 1,1 0 1,0 -2,0 M 404 495 m -0.5, 0 a 0.5,0.5 0 1,0 1,0 a 0.5,0.5 0 1,0 -1,0  M404 495 L404 495 392 495 M398 501 L398 501 398 489 M392 495 C 342 495, 256.79999999999995 80, 534 80 M 546 80 m -1, 0 a 1,1 0 1,0 2,0 a 1,1 0 1,0 -2,0 M 546 80 m -0.5, 0 a 0.5,0.5 0 1,0 1,0 a 0.5,0.5 0 1,0 -1,0  M546 80 L546 80 534 80 M540 86 L540 86 540 74" id="h2286254435" class="r"></path><path d="M 799 461 m -1, 0 a 1,1 0 1,0 2,0 a 1,1 0 1,0 -2,0 M 799 461 m -0.5, 0 a 0.5,0.5 0 1,0 1,0 a 0.5,0.5 0 1,0 -1,0  M799 461 L799 461 811 461 M805 467 L805 467 805 455 M811 461 C 861 461, 916.2 80, 719 80 M 707 80 m -1, 0 a 1,1 0 1,0 2,0 a 1,1 0 1,0 -2,0 M 707 80 m -0.5, 0 a 0.5,0.5 0 1,0 1,0 a 0.5,0.5 0 1,0 -1,0  M707 80 L707 80 719 80 M713 86 L713 86 713 74" id="h3177548053" class="r"></path><path d="M 897 456 m -1, 0 a 1,1 0 1,0 2,0 a 1,1 0 1,0 -2,0 M 897 456 m -0.5, 0 a 0.5,0.5 0 1,0 1,0 a 0.5,0.5 0 1,0 -1,0  M897 456 L897 456 885 456 M891 462 L891 462 891 450 M885 456 Q 843.5 456, 802 268 T 719 80 M 707 80 m -1, 0 a 1,1 0 1,0 2,0 a 1,1 0 1,0 -2,0 M 707 80 m -0.5, 0 a 0.5,0.5 0 1,0 1,0 a 0.5,0.5 0 1,0 -1,0  M707 80 L707 80 719 80 M713 86 L713 86 713 74" id="h3000826536" class="r"></path></g><g class="hrs"></g><g class="ts"><svg width="161" height="200" x="546" y="23" id="h1639608377" class="t"><rect height="40" width="161" class="th"></rect><text x="13" y="25" class="tht">employees</text><rect height="160" width="161" class="t-bg" y="40"></rect><text x="13" y="61" class="tf pk">emp_no<tspan x="148" class="ty">INT</tspan></text><path d="M7,14A2,2 0 0,1 5,12A2,2 0 0,1 7,10A2,2 0 0,1 9,12A2,2 0 0,1 7,14M12.65,10C11.83,7.67 9.61,6 7, 6A6, 6 0 0, 0 1, 12A6, 6 0 0, 0 7, 18C9.61, 18 11.83, 16.33 12.65, 14H17V18H21V14H23V10H12.65Z" class="i pk" transform="translate(109, 48) scale(0.65)"></path><text x="13" y="86" class="tf">birth_date<tspan x="148" class="ty">DATE</tspan></text><text x="13" y="111" class="tf">first_name<tspan x="148" class="ty">VARCHAR</tspan></text><text x="13" y="136" class="tf">last_name<tspan x="148" class="ty">VARCHAR</tspan></text><text x="13" y="161" class="tf">gender<tspan x="148" class="ty">VARCHAR</tspan></text><text x="13" y="186" class="tf">hire_date<tspan x="148" class="ty">DATE</tspan></text></svg><svg width="167" height="100" x="283" y="27" id="h475896179" class="t"><rect height="40" width="167" class="th"></rect><text x="13" y="25" class="tht">departments</text><rect height="60" width="167" class="t-bg" y="40"></rect><text x="13" y="61" class="tf pk">dept_no<tspan x="154" class="ty">VARCHAR</tspan></text><path d="M7,14A2,2 0 0,1 5,12A2,2 0 0,1 7,10A2,2 0 0,1 9,12A2,2 0 0,1 7,14M12.65,10C11.83,7.67 9.61,6 7, 6A6, 6 0 0, 0 1, 12A6, 6 0 0, 0 7, 18C9.61, 18 11.83, 16.33 12.65, 14H17V18H21V14H23V10H12.65Z" class="i pk" transform="translate(78, 48) scale(0.65)"></path><text x="13" y="86" class="tf">dept_name<tspan x="154" class="ty">VARCHAR</tspan></text></svg><svg width="147" height="150" x="404" y="413" id="h1676682957" class="t"><rect height="40" width="147" class="th"></rect><text x="13" y="25" class="tht">dept_manager</text><rect height="110" width="147" class="t-bg" y="40"></rect><text x="13" y="61" class="tf fk">dept_no<tspan x="134" class="ty">VARCHAR</tspan></text><text x="13" y="86" class="tf fk">emp_no<tspan x="134" class="ty">INT</tspan></text><text x="13" y="111" class="tf">from_date<tspan x="134" class="ty">DATE</tspan></text><text x="13" y="136" class="tf">to_date<tspan x="134" class="ty">DATE</tspan></text></svg><svg width="167" height="150" x="112" y="406" id="h1090417462" class="t"><rect height="40" width="167" class="th"></rect><text x="13" y="25" class="tht">dept_emp</text><rect height="110" width="167" class="t-bg" y="40"></rect><text x="13" y="61" class="tf pk">emp_no<tspan x="154" class="ty">INT</tspan></text><path d="M7,14A2,2 0 0,1 5,12A2,2 0 0,1 7,10A2,2 0 0,1 9,12A2,2 0 0,1 7,14M12.65,10C11.83,7.67 9.61,6 7, 6A6, 6 0 0, 0 1, 12A6, 6 0 0, 0 7, 18C9.61, 18 11.83, 16.33 12.65, 14H17V18H21V14H23V10H12.65Z" class="i pk" transform="translate(115, 48) scale(0.65)"></path><text x="13" y="86" class="tf pk">dept_no<tspan x="154" class="ty">VARCHAR</tspan></text><path d="M7,14A2,2 0 0,1 5,12A2,2 0 0,1 7,10A2,2 0 0,1 9,12A2,2 0 0,1 7,14M12.65,10C11.83,7.67 9.61,6 7, 6A6, 6 0 0, 0 1, 12A6, 6 0 0, 0 7, 18C9.61, 18 11.83, 16.33 12.65, 14H17V18H21V14H23V10H12.65Z" class="i pk" transform="translate(78, 73) scale(0.65)"></path><text x="13" y="111" class="tf">from_date<tspan x="154" class="ty">DATE</tspan></text><text x="13" y="136" class="tf">to_date<tspan x="154" class="ty">DATE</tspan></text></svg><svg width="152" height="150" x="647" y="404" id="h2472833127" class="t"><rect height="40" width="152" class="th"></rect><text x="13" y="25" class="tht">salaries</text><rect height="110" width="152" class="t-bg" y="40"></rect><text x="13" y="61" class="tf pk">emp_no<tspan x="139" class="ty">INT</tspan></text><path d="M7,14A2,2 0 0,1 5,12A2,2 0 0,1 7,10A2,2 0 0,1 9,12A2,2 0 0,1 7,14M12.65,10C11.83,7.67 9.61,6 7, 6A6, 6 0 0, 0 1, 12A6, 6 0 0, 0 7, 18C9.61, 18 11.83, 16.33 12.65, 14H17V18H21V14H23V10H12.65Z" class="i pk" transform="translate(100, 48) scale(0.65)"></path><text x="13" y="86" class="tf">salary<tspan x="139" class="ty">INT</tspan></text><text x="13" y="111" class="tf pk">from_date<tspan x="139" class="ty">DATE</tspan></text><path d="M7,14A2,2 0 0,1 5,12A2,2 0 0,1 7,10A2,2 0 0,1 9,12A2,2 0 0,1 7,14M12.65,10C11.83,7.67 9.61,6 7, 6A6, 6 0 0, 0 1, 12A6, 6 0 0, 0 7, 18C9.61, 18 11.83, 16.33 12.65, 14H17V18H21V14H23V10H12.65Z" class="i pk" transform="translate(89, 98) scale(0.65)"></path><text x="13" y="136" class="tf">to_date<tspan x="139" class="ty">DATE</tspan></text></svg><svg width="152" height="150" x="897" y="399" id="h311790747" class="t"><rect height="40" width="152" class="th"></rect><text x="13" y="25" class="tht">titles</text><rect height="110" width="152" class="t-bg" y="40"></rect><text x="13" y="61" class="tf pk">emp_no<tspan x="139" class="ty">INT</tspan></text><path d="M7,14A2,2 0 0,1 5,12A2,2 0 0,1 7,10A2,2 0 0,1 9,12A2,2 0 0,1 7,14M12.65,10C11.83,7.67 9.61,6 7, 6A6, 6 0 0, 0 1, 12A6, 6 0 0, 0 7, 18C9.61, 18 11.83, 16.33 12.65, 14H17V18H21V14H23V10H12.65Z" class="i pk" transform="translate(100, 48) scale(0.65)"></path><text x="13" y="86" class="tf pk">title<tspan x="139" class="ty">VARCHAR</tspan></text><path d="M7,14A2,2 0 0,1 5,12A2,2 0 0,1 7,10A2,2 0 0,1 9,12A2,2 0 0,1 7,14M12.65,10C11.83,7.67 9.61,6 7, 6A6, 6 0 0, 0 1, 12A6, 6 0 0, 0 7, 18C9.61, 18 11.83, 16.33 12.65, 14H17V18H21V14H23V10H12.65Z" class="i pk" transform="translate(63, 73) scale(0.65)"></path><text x="13" y="111" class="tf pk">from_date<tspan x="139" class="ty">DATE</tspan></text><path d="M7,14A2,2 0 0,1 5,12A2,2 0 0,1 7,10A2,2 0 0,1 9,12A2,2 0 0,1 7,14M12.65,10C11.83,7.67 9.61,6 7, 6A6, 6 0 0, 0 1, 12A6, 6 0 0, 0 7, 18C9.61, 18 11.83, 16.33 12.65, 14H17V18H21V14H23V10H12.65Z" class="i pk" transform="translate(89, 98) scale(0.65)"></path><text x="13" y="136" class="tf">to_date<tspan x="139" class="ty">DATE</tspan></text></svg></g></g><text class="qdbd-link" x="10" y="20">www.quickdatabasediagrams.com</text></svg>